<svg width="81" height="80" viewBox="0 0 81 80" fill="none" xmlns="http://www.w3.org/2000/svg">
<path d="M27.1667 73.3333C26.2223 73.3333 25.4301 73.0133 24.7901 72.3733C24.1501 71.7333 23.8312 70.9422 23.8334 70V16.6666C23.8334 15.7222 24.1534 14.93 24.7934 14.29C25.4334 13.65 26.2245 13.3311 27.1667 13.3333H33.8334V9.99997C33.8334 9.05553 34.1534 8.2633 34.7934 7.6233C35.4334 6.9833 36.2245 6.66442 37.1667 6.66664H43.8334C44.7778 6.66664 45.5701 6.98664 46.2101 7.62664C46.8501 8.26664 47.1689 9.05775 47.1667 9.99997V13.3333H53.8334C54.7778 13.3333 55.5701 13.6533 56.21 14.2933C56.8501 14.9333 57.1689 15.7244 57.1667 16.6666V70C57.1667 70.9444 56.8467 71.7366 56.2067 72.3766C55.5667 73.0166 54.7756 73.3355 53.8334 73.3333H27.1667ZM30.5001 40H50.5001V20H30.5001V40Z" fill="#0FA958"/>
</svg>
