<svg width="40" height="40" viewBox="0 0 40 40" fill="none" xmlns="http://www.w3.org/2000/svg">
<path d="M11.1583 10.125V32.1167H5.88333C5.32041 32.1167 4.7803 31.8942 4.3807 31.4977C3.9811 31.1013 3.7544 30.5629 3.75 30V14.0167M28.8417 10.125V32.1167H34.1167C34.6796 32.1167 35.2197 31.8942 35.6193 31.4977C36.0189 31.1013 36.2456 30.5629 36.25 30V14.0167" stroke="#FCFCFC" stroke-width="0.833333" stroke-miterlimit="10"/>
<path d="M20 26.2084L36.25 14.1667V11.1667C36.2485 10.5598 36.0788 9.96515 35.7597 9.44885C35.4406 8.93255 34.9847 8.51479 34.4425 8.24198C33.9003 7.96917 33.2931 7.85197 32.6884 7.90342C32.0836 7.95486 31.505 8.17293 31.0167 8.5334L20 16.7167L8.98333 8.5334C8.49503 8.17293 7.91637 7.95486 7.31161 7.90342C6.70686 7.85197 6.09968 7.96917 5.5575 8.24198C5.01533 8.51479 4.55939 8.93255 4.24031 9.44885C3.92124 9.96515 3.75152 10.5598 3.75 11.1667V14.1667L20 26.2084Z" stroke="#FCFCFC" stroke-width="0.833333" stroke-miterlimit="10"/>
</svg>
