<svg width="61" height="60" viewBox="0 0 61 60" fill="none" xmlns="http://www.w3.org/2000/svg">
<path d="M20.5 17.5C18.4167 17.5 16.6458 16.7708 15.1875 15.3125C13.7292 13.8542 13 12.0833 13 10C13 7.91667 13.7292 6.14583 15.1875 4.6875C16.6458 3.22917 18.4167 2.5 20.5 2.5C22.0833 2.5 23.5208 2.96917 24.8125 3.9075C26.1042 4.84583 27.0417 6.04333 27.625 7.5H48V12.5H45.5V17.5H40.5V12.5H27.625C27.0417 13.9583 26.1042 15.1567 24.8125 16.095C23.5208 17.0333 22.0833 17.5017 20.5 17.5ZM20.5 12.5C21.2083 12.5 21.8025 12.26 22.2825 11.78C22.7625 11.3 23.0017 10.7067 23 10C23 9.29167 22.76 8.6975 22.28 8.2175C21.8 7.7375 21.2067 7.49833 20.5 7.5C19.7917 7.5 19.1975 7.74 18.7175 8.22C18.2375 8.7 17.9983 9.29333 18 10C18 10.7083 18.24 11.3025 18.72 11.7825C19.2 12.2625 19.7933 12.5017 20.5 12.5ZM23 43.75C23.7083 43.75 24.3025 43.51 24.7825 43.03C25.2625 42.55 25.5017 41.9567 25.5 41.25C25.5 40.5417 25.26 39.9475 24.78 39.4675C24.3 38.9875 23.7067 38.7483 23 38.75C22.2917 38.75 21.6975 38.99 21.2175 39.47C20.7375 39.95 20.4983 40.5433 20.5 41.25C20.5 41.9583 20.74 42.5525 21.22 43.0325C21.7 43.5125 22.2933 43.7517 23 43.75ZM38 43.75C38.7083 43.75 39.3025 43.51 39.7825 43.03C40.2625 42.55 40.5017 41.9567 40.5 41.25C40.5 40.5417 40.26 39.9475 39.78 39.4675C39.3 38.9875 38.7067 38.7483 38 38.75C37.2917 38.75 36.6975 38.99 36.2175 39.47C35.7375 39.95 35.4983 40.5433 35.5 41.25C35.5 41.9583 35.74 42.5525 36.22 43.0325C36.7 43.5125 37.2933 43.7517 38 43.75ZM13 36.5L17.125 24.5C17.3333 23.9167 17.6775 23.4375 18.1575 23.0625C18.6375 22.6875 19.1683 22.5 19.75 22.5H41.25C41.8333 22.5 42.365 22.6875 42.845 23.0625C43.325 23.4375 43.6683 23.9167 43.875 24.5L48 36.5V53C48 53.5833 47.8125 54.0625 47.4375 54.4375C47.0625 54.8125 46.5833 55 46 55H45C44.4167 55 43.9375 54.8125 43.5625 54.4375C43.1875 54.0625 43 53.5833 43 53V50H18V53C18 53.5833 17.8125 54.0625 17.4375 54.4375C17.0625 54.8125 16.5833 55 16 55H15C14.4167 55 13.9375 54.8125 13.5625 54.4375C13.1875 54.0625 13 53.5833 13 53V36.5ZM19.625 32.5H41.375L39.625 27.5H21.375L19.625 32.5ZM18 45H43V37.5H18V45Z" fill="#0FA958"/>
</svg>
