<svg width="61" height="60" viewBox="0 0 61 60" fill="none" xmlns="http://www.w3.org/2000/svg">
<g clip-path="url(#clip0_401_678)">
<path d="M45.2834 23.8C42.2867 18.8174 38.1657 14.6052 33.25 11.5C31.0349 10.0961 28.5097 9.25574 25.895 9.05238C23.2804 8.84901 20.6556 9.2888 18.25 10.3333C16.1459 11.3258 14.3149 12.8156 12.9153 14.674C11.5157 16.5324 10.5895 18.7036 10.2167 21C10.0834 21.8167 9.96671 22.6667 9.86671 23.3333H8.20004C7.62897 23.3267 7.06227 23.4335 6.53277 23.6475C6.00326 23.8614 5.52147 24.1783 5.11532 24.5798C4.70917 24.9813 4.38673 25.4594 4.16668 25.9865C3.94662 26.5135 3.83334 27.0789 3.83337 27.65V41.9C3.83337 42.2801 3.98439 42.6447 4.25319 42.9135C4.52199 43.1823 4.88656 43.3333 5.26671 43.3333H8.15004V42.6833C8.14578 41.1401 8.51298 39.6186 9.22061 38.2471C9.92825 36.8757 10.9555 35.6947 12.2157 34.804C13.4759 33.9132 14.9319 33.3388 16.4608 33.1292C17.9898 32.9197 19.5467 33.0811 21 33.6L19.3334 35.2667C18.0024 35.0219 16.6303 35.1369 15.3587 35.5998C14.087 36.0628 12.9621 36.8568 12.1 37.9C11.6556 38.346 11.2993 38.8718 11.05 39.45C10.5372 40.4424 10.2525 41.5368 10.2168 42.6533C10.1811 43.7698 10.3952 44.8802 10.8435 45.9033C11.2919 46.9264 11.9631 47.8365 12.8082 48.567C13.6532 49.2976 14.6508 49.8301 15.7281 50.1257C16.8053 50.4214 17.935 50.4727 19.0345 50.2758C20.1341 50.079 21.1758 49.639 22.0836 48.988C22.9914 48.3371 23.7423 47.4915 24.2815 46.5132C24.8207 45.5349 25.1345 44.4485 25.2 43.3333H34.3334V42.6833C34.3301 41.1421 34.6973 39.6227 35.404 38.2531C36.1107 36.8834 37.1363 35.7037 38.3942 34.8133C39.6522 33.9229 41.1058 33.3479 42.6325 33.1368C44.1592 32.9256 45.7143 33.0845 47.1667 33.6L45.5 35.2667C44.1691 35.0219 42.7969 35.1369 41.5253 35.5998C40.2537 36.0628 39.1288 36.8568 38.2667 37.9C37.8222 38.346 37.466 38.8718 37.2167 39.45C36.7109 40.4423 36.4324 41.5347 36.4015 42.6481C36.3705 43.7614 36.5879 44.8676 37.0379 45.8864C37.4879 46.9052 38.1591 47.811 39.0029 48.538C39.8466 49.2651 40.8417 49.795 41.9158 50.0895C42.99 50.3839 44.1162 50.4354 45.2127 50.2403C46.3092 50.0451 47.3485 49.6082 48.2551 48.9613C49.1617 48.3143 49.9128 47.4736 50.4539 46.5001C50.995 45.5266 51.3125 44.4448 51.3834 43.3333H55.7334C56.1135 43.3333 56.4781 43.1823 56.7469 42.9135C57.0157 42.6447 57.1667 42.2801 57.1667 41.9V38.9333C57.1541 35.4477 55.9782 32.0661 53.8255 29.3247C51.6728 26.5832 48.6665 24.6389 45.2834 23.8ZM20.5 23.3333H13.8334C13.8334 22.75 14 22.15 14.1 21.55C14.38 19.7279 15.119 18.007 16.2473 16.5492C17.3757 15.0914 18.8563 13.9446 20.55 13.2167L20.5 23.3333ZM17.7667 47.2667C16.9426 47.2667 16.137 47.0223 15.4518 46.5645C14.7666 46.1066 14.2326 45.4559 13.9172 44.6945C13.6018 43.9332 13.5193 43.0954 13.6801 42.2871C13.8409 41.4789 14.2377 40.7364 14.8204 40.1537C15.4031 39.571 16.1456 39.1742 16.9538 39.0134C17.7621 38.8526 18.5999 38.9351 19.3612 39.2505C20.1226 39.5659 20.7733 40.0999 21.2312 40.7851C21.689 41.4703 21.9334 42.2759 21.9334 43.1C21.9334 44.2051 21.4944 45.2649 20.713 46.0463C19.9316 46.8277 18.8718 47.2667 17.7667 47.2667ZM32.1667 31.6667H27.1667V28.3333H32.1667V31.6667ZM22.1667 23.3333V12.45C25.2983 12.0237 28.4805 12.7015 31.1667 14.3667C34.8575 16.6868 38.034 19.7384 40.5 23.3333H22.1667ZM43.9334 47.2667C43.1093 47.2667 42.3037 47.0223 41.6185 46.5645C40.9333 46.1066 40.3992 45.4559 40.0839 44.6945C39.7685 43.9332 39.686 43.0954 39.8468 42.2871C40.0075 41.4789 40.4044 40.7364 40.9871 40.1537C41.5698 39.571 42.3122 39.1742 43.1205 39.0134C43.9288 38.8526 44.7665 38.9351 45.5279 39.2505C46.2892 39.5659 46.94 40.0999 47.3978 40.7851C47.8557 41.4703 48.1 42.2759 48.1 43.1C48.1 44.2051 47.6611 45.2649 46.8797 46.0463C46.0983 46.8277 45.0384 47.2667 43.9334 47.2667Z" fill="#0FA958"/>
</g>
<defs>
<clipPath id="clip0_401_678">
<rect width="60" height="60" fill="white" transform="translate(0.5)"/>
</clipPath>
</defs>
</svg>
