<svg width="81" height="80" viewBox="0 0 81 80" fill="none" xmlns="http://www.w3.org/2000/svg">
<path d="M38.8333 46.6666V55.8333C38.8333 56.2777 39.0555 56.5555 39.5 56.6666C39.9444 56.7777 40.25 56.6111 40.4167 56.1666L46.1667 42.3333C46.3889 41.7777 46.3467 41.25 46.04 40.75C45.7333 40.25 45.2755 40 44.6667 40H42.1667V30.8333C42.1667 30.3889 41.9444 30.1111 41.5 30C41.0555 29.8889 40.75 30.0555 40.5833 30.5L34.8333 44.3333C34.6111 44.8889 34.6533 45.4166 34.96 45.9166C35.2667 46.4166 35.7244 46.6666 36.3333 46.6666H38.8333ZM27.1667 73.3333C26.2222 73.3333 25.43 73.0133 24.79 72.3733C24.15 71.7333 23.8311 70.9422 23.8333 70V16.6666C23.8333 15.7222 24.1533 14.93 24.7933 14.29C25.4333 13.65 26.2244 13.3311 27.1667 13.3333H33.8333V9.99997C33.8333 9.05553 34.1533 8.2633 34.7933 7.6233C35.4333 6.9833 36.2244 6.66442 37.1667 6.66664H43.8333C44.7778 6.66664 45.57 6.98664 46.21 7.62664C46.85 8.26664 47.1689 9.05775 47.1667 9.99997V13.3333H53.8333C54.7778 13.3333 55.57 13.6533 56.21 14.2933C56.85 14.9333 57.1689 15.7244 57.1667 16.6666V70C57.1667 70.9444 56.8467 71.7366 56.2067 72.3766C55.5667 73.0166 54.7755 73.3355 53.8333 73.3333H27.1667Z" fill="#0FA958"/>
</svg>
