<svg width="61" height="60" viewBox="0 0 61 60" fill="none" xmlns="http://www.w3.org/2000/svg">
<path d="M17.05 26.975C20.65 34.05 26.45 39.825 33.525 43.45L39.025 37.95C39.7 37.275 40.7 37.05 41.575 37.35C44.375 38.275 47.4 38.775 50.5 38.775C51.875 38.775 53 39.9 53 41.275V50C53 51.375 51.875 52.5 50.5 52.5C27.025 52.5 8 33.475 8 10C8 8.625 9.125 7.5 10.5 7.5H19.25C20.625 7.5 21.75 8.625 21.75 10C21.75 13.125 22.25 16.125 23.175 18.925C23.45 19.8 23.25 20.775 22.55 21.475L17.05 26.975Z" fill="#0FA958"/>
</svg>
