<svg width="24" height="25" viewBox="0 0 24 25" fill="none" xmlns="http://www.w3.org/2000/svg">
<path d="M12 22.5C17.5228 22.5 22 18.0228 22 12.5C22 6.97715 17.5228 2.5 12 2.5C6.47715 2.5 2 6.97715 2 12.5C2 18.0228 6.47715 22.5 12 22.5Z" stroke="#FCFCFC" stroke-linecap="round" stroke-linejoin="round"/>
<path d="M11.5859 18L7.75 7.89062H7.6875C7.70833 8.10417 7.72656 8.36458 7.74219 8.67188C7.75781 8.97917 7.77083 9.3151 7.78125 9.67969C7.79167 10.0391 7.79688 10.4062 7.79688 10.7812V18H6.5625V6.57812H8.53125L12.1484 16.0781H12.2031L15.875 6.57812H17.8281V18H16.5156V10.6875C16.5156 10.349 16.5208 10.0104 16.5312 9.67188C16.5417 9.32812 16.5547 9.00521 16.5703 8.70312C16.5859 8.39583 16.6016 8.13021 16.6172 7.90625H16.5547L12.6719 18H11.5859Z" fill="#FCFCFC"/>
</svg>
