<svg width="22" height="24" viewBox="0 0 22 24" fill="none" xmlns="http://www.w3.org/2000/svg">
<path d="M11.0001 2V18M11.0001 18V22M11.0001 18L14.0001 21M11.0001 18L8.00005 21M14.0001 3L11.0001 6L8.00005 3M2.34005 7L5.80405 9M5.80405 9L16.1961 15M5.80405 9L4.70605 4.902M5.80405 9L1.70605 10.098M16.1961 15L19.6601 17M16.1961 15L20.2941 13.902M16.1971 15L17.2951 19.099M19.6601 7L16.1961 9M16.1961 9L5.80405 15M16.1961 9L17.2941 4.902M16.1961 9L20.2941 10.098M5.80405 15L2.34005 17M5.80405 15L1.70605 13.902M5.80405 15L4.70605 19.1" stroke="#0FA958" stroke-width="2.5" stroke-linecap="round"/>
</svg>
