<svg width="40" height="40" viewBox="0 0 40 40" fill="none" xmlns="http://www.w3.org/2000/svg">
<path opacity="0.8" d="M20 3.33337C10.8334 3.33337 3.33337 10.8334 3.33337 20C3.33337 29.1667 10.8334 36.6667 20 36.6667C29.1667 36.6667 36.6667 29.1667 36.6667 20C36.6667 10.8334 29.1667 3.33337 20 3.33337ZM20 33.3334C12.65 33.3334 6.66671 27.35 6.66671 20C6.66671 12.65 12.65 6.66671 20 6.66671C27.35 6.66671 33.3334 12.65 33.3334 20C33.3334 27.35 27.35 33.3334 20 33.3334ZM20.8334 11.6667H18.3334V21.6667L27 27L28.3334 24.8334L20.8334 20.3334V11.6667Z" fill="#0FA958"/>
</svg>
