<svg width="24" height="24" viewBox="0 0 24 24" fill="none" xmlns="http://www.w3.org/2000/svg">
<path opacity="0.5" fill-rule="evenodd" clip-rule="evenodd" d="M10 2H9C6.172 2 4.757 2 3.879 2.879C3 3.757 3 5.172 3 8V21.25H16V8C16 5.172 16 3.757 15.121 2.879C14.243 2 12.828 2 10 2Z" fill="#0FA958"/>
<path d="M3 21.25H2C1.80109 21.25 1.61032 21.329 1.46967 21.4696C1.32902 21.6103 1.25 21.8011 1.25 22C1.25 22.1989 1.32902 22.3896 1.46967 22.5303C1.61032 22.6709 1.80109 22.75 2 22.75H17.25C17.4489 22.75 17.6397 22.6709 17.7803 22.5303C17.921 22.3896 18 22.1989 18 22C18 21.8011 17.921 21.6103 17.7803 21.4696C17.6397 21.329 17.4489 21.25 17.25 21.25H3ZM10.143 10.386C10.1949 10.3015 10.2294 10.2076 10.2448 10.1097C10.2601 10.0117 10.2559 9.91175 10.2324 9.81547C10.2088 9.71919 10.1664 9.62853 10.1076 9.54874C10.0488 9.46894 9.97482 9.40159 9.88984 9.35058C9.80486 9.29956 9.71061 9.2659 9.61254 9.25153C9.51447 9.23716 9.41453 9.24237 9.31849 9.26687C9.22244 9.29136 9.13221 9.33464 9.053 9.39422C8.97379 9.4538 8.90717 9.52849 8.857 9.61397L7.357 12.114C7.28869 12.2278 7.2518 12.3577 7.2501 12.4904C7.24841 12.6231 7.28196 12.7539 7.34735 12.8694C7.41273 12.9849 7.50759 13.081 7.62225 13.1479C7.73692 13.2147 7.86727 13.25 8 13.25H9.675L8.857 14.614C8.75696 14.7844 8.72824 14.9874 8.77708 15.1789C8.82591 15.3704 8.94836 15.5349 9.1178 15.6366C9.28724 15.7384 9.48998 15.7691 9.68195 15.7221C9.87393 15.6752 10.0396 15.5544 10.143 15.386L11.643 12.886C11.7113 12.7722 11.7482 12.6423 11.7499 12.5096C11.7516 12.3768 11.718 12.246 11.6527 12.1305C11.5873 12.015 11.4924 11.9189 11.3777 11.8521C11.2631 11.7852 11.1327 11.75 11 11.75H9.325L10.143 10.386ZM16 17.75H17.571C17.946 17.75 18.25 18.054 18.25 18.429V18.5C18.25 19.0967 18.4871 19.669 18.909 20.091C19.331 20.5129 19.9033 20.75 20.5 20.75C21.0967 20.75 21.669 20.5129 22.091 20.091C22.5129 19.669 22.75 19.0967 22.75 18.5V7.60197C22.75 7.44497 22.75 7.33697 22.744 7.23197C22.6886 6.24113 22.2427 5.31265 21.504 4.64997C21.4103 4.56931 21.315 4.49062 21.218 4.41397L19.968 3.41397C19.8912 3.35111 19.8027 3.30413 19.7076 3.27573C19.6125 3.24734 19.5127 3.2381 19.414 3.24856C19.3153 3.25901 19.2197 3.28895 19.1326 3.33663C19.0456 3.38432 18.9689 3.4488 18.907 3.52635C18.845 3.6039 18.7991 3.69297 18.7719 3.7884C18.7446 3.88382 18.7365 3.98371 18.7482 4.08227C18.7598 4.18083 18.7909 4.2761 18.8396 4.36257C18.8883 4.44903 18.9537 4.52496 19.032 4.58597L20.265 5.57197C20.409 5.68797 20.459 5.72797 20.502 5.76697C20.945 6.16397 21.213 6.72097 21.247 7.31597C21.2506 7.41793 21.2516 7.51996 21.25 7.62197V7.99997H20.5C20.1022 7.99997 19.7206 8.158 19.4393 8.43931C19.158 8.72061 19 9.10214 19 9.49997V11.919C19 12.2338 19.0991 12.5407 19.2833 12.7961C19.4674 13.0515 19.7273 13.2425 20.026 13.342L21.25 13.75V18.5C21.25 18.6989 21.171 18.8896 21.0303 19.0303C20.8897 19.1709 20.6989 19.25 20.5 19.25C20.3011 19.25 20.1103 19.1709 19.9697 19.0303C19.829 18.8896 19.75 18.6989 19.75 18.5V18.429C19.75 17.8511 19.5204 17.2968 19.1118 16.8882C18.7031 16.4795 18.1489 16.25 17.571 16.25H16V17.75Z" fill="#0FA958"/>
</svg>
